<svg width="159" height="159" viewBox="0 0 159 159" fill="none" xmlns="http://www.w3.org/2000/svg">
<circle cx="79.5" cy="79.5" r="79.5" fill="url(#paint0_linear_175_44)"/>
<path d="M58.696 103.768C54.984 103.768 51.6773 102.851 48.776 101.016C45.8747 99.1813 43.592 96.536 41.928 93.08C40.3067 89.5813 39.496 85.4213 39.496 80.6C39.496 75.7787 40.3067 71.64 41.928 68.184C43.592 64.6853 45.8747 62.0187 48.776 60.184C51.6773 58.3493 54.984 57.432 58.696 57.432C62.408 57.432 65.7147 58.3493 68.616 60.184C71.5173 62.0187 73.7787 64.6853 75.4 68.184C77.064 71.64 77.896 75.7787 77.896 80.6C77.896 85.4213 77.064 89.5813 75.4 93.08C73.7787 96.536 71.5173 99.1813 68.616 101.016C65.7147 102.851 62.408 103.768 58.696 103.768ZM58.696 95C61.4267 95 63.56 93.8267 65.096 91.48C66.6747 89.1333 67.464 85.5067 67.464 80.6C67.464 75.6933 66.6747 72.0667 65.096 69.72C63.56 67.3733 61.4267 66.2 58.696 66.2C56.008 66.2 53.8747 67.3733 52.296 69.72C50.76 72.0667 49.992 75.6933 49.992 80.6C49.992 85.5067 50.76 89.1333 52.296 91.48C53.8747 93.8267 56.008 95 58.696 95ZM103.237 76.44C107.162 77.08 110.17 78.552 112.261 80.856C114.351 83.1173 115.397 85.9333 115.397 89.304C115.397 91.9067 114.714 94.3173 113.349 96.536C111.983 98.712 109.893 100.461 107.077 101.784C104.303 103.107 100.89 103.768 96.8365 103.768C93.6792 103.768 90.5645 103.363 87.4925 102.552C84.4632 101.699 81.8818 100.504 79.7485 98.968L83.7805 91.032C85.4872 92.312 87.4498 93.3147 89.6685 94.04C91.9298 94.7227 94.2338 95.064 96.5805 95.064C99.1832 95.064 101.231 94.5733 102.725 93.592C104.218 92.568 104.965 91.1387 104.965 89.304C104.965 85.6347 102.17 83.8 96.5805 83.8H91.8445V76.952L101.061 66.52H81.9885V58.2H113.349V64.92L103.237 76.44Z" fill="#343045"/>
<defs>
<linearGradient id="paint0_linear_175_44" x1="146" y1="42.5" x2="-3.89567e-06" y2="92" gradientUnits="userSpaceOnUse">
<stop stop-color="#C0B7E8"/>
<stop offset="1" stop-color="#8176AF"/>
</linearGradient>
</defs>
</svg>
